<svg width="320" height="169" viewBox="0 0 320 169" fill="none" xmlns="http://www.w3.org/2000/svg">
<g filter="url(#filter0_f_1_298)">
<rect x="54.0857" y="54.5859" width="211.829" height="60" rx="10" fill="#F53838" fill-opacity="0.35"/>
</g>
<rect x="35" y="29.2949" width="250" height="60" rx="10" fill="#F53838"/>
<path d="M118.276 64.9549C116.729 64.9549 115.519 64.5816 114.644 63.8349C113.769 63.0776 113.305 62.0003 113.252 60.6029C113.241 60.3043 113.236 59.8189 113.236 59.1469C113.236 58.4749 113.241 57.9843 113.252 57.6749C113.295 56.3309 113.759 55.2909 114.644 54.5549C115.54 53.8083 116.751 53.4349 118.276 53.4349C119.3 53.4349 120.191 53.6003 120.948 53.9309C121.716 54.2616 122.297 54.6883 122.692 55.2109C123.097 55.7229 123.311 56.2509 123.332 56.7949C123.332 56.8909 123.295 56.9763 123.22 57.0509C123.156 57.1149 123.076 57.1469 122.98 57.1469H120.5C120.393 57.1469 120.308 57.1309 120.244 57.0989C120.191 57.0563 120.137 56.9976 120.084 56.9229C119.956 56.6243 119.748 56.3683 119.46 56.1549C119.183 55.9416 118.788 55.8349 118.276 55.8349C117.039 55.8349 116.399 56.4749 116.356 57.7549C116.345 58.0536 116.34 58.5123 116.34 59.1309C116.34 59.7496 116.345 60.2136 116.356 60.5229C116.399 61.8776 117.049 62.5549 118.308 62.5549C118.927 62.5549 119.417 62.4003 119.78 62.0909C120.143 61.7816 120.324 61.3123 120.324 60.6829V60.3949H118.9C118.783 60.3949 118.681 60.3576 118.596 60.2829C118.521 60.1976 118.484 60.0963 118.484 59.9789V58.7309C118.484 58.6136 118.521 58.5176 118.596 58.4429C118.681 58.3576 118.783 58.3149 118.9 58.3149H122.964C123.081 58.3149 123.177 58.3576 123.252 58.4429C123.337 58.5176 123.38 58.6136 123.38 58.7309V60.5869C123.38 61.4936 123.167 62.2776 122.74 62.9389C122.324 63.5896 121.732 64.0909 120.964 64.4429C120.196 64.7843 119.3 64.9549 118.276 64.9549ZM128.879 64.9549C127.577 64.9549 126.553 64.6083 125.807 63.9149C125.06 63.2109 124.676 62.1923 124.655 60.8589V60.3629C124.697 59.0936 125.092 58.1016 125.839 57.3869C126.585 56.6723 127.593 56.3149 128.863 56.3149C129.78 56.3149 130.553 56.5016 131.183 56.8749C131.823 57.2376 132.297 57.7443 132.607 58.3949C132.927 59.0349 133.087 59.7656 133.087 60.5869V60.9869C133.087 61.1043 133.044 61.2056 132.959 61.2909C132.884 61.3656 132.788 61.4029 132.671 61.4029H127.599V61.4989C127.609 61.9789 127.721 62.3683 127.935 62.6669C128.148 62.9549 128.452 63.0989 128.847 63.0989C129.103 63.0989 129.305 63.0509 129.455 62.9549C129.615 62.8483 129.764 62.7149 129.903 62.5549C129.999 62.4483 130.073 62.3843 130.127 62.3629C130.191 62.3309 130.287 62.3149 130.415 62.3149H132.51C132.606 62.3149 132.687 62.3469 132.751 62.4109C132.825 62.4643 132.863 62.5336 132.863 62.6189C132.863 62.8963 132.703 63.2216 132.383 63.5949C132.073 63.9683 131.615 64.2883 131.007 64.5549C130.409 64.8216 129.7 64.9549 128.879 64.9549ZM130.143 59.7709V59.7389C130.143 59.2269 130.031 58.8323 129.807 58.5549C129.583 58.2669 129.268 58.1229 128.863 58.1229C128.457 58.1229 128.143 58.2669 127.919 58.5549C127.705 58.8323 127.599 59.2269 127.599 59.7389V59.7709H130.143ZM138.874 64.7949C136.612 64.7949 135.482 63.7336 135.482 61.6109V58.6509H134.218C134.111 58.6509 134.015 58.6136 133.93 58.5389C133.855 58.4536 133.818 58.3576 133.818 58.2509V56.8749C133.818 56.7576 133.855 56.6616 133.93 56.5869C134.015 56.5123 134.111 56.4749 134.218 56.4749H135.482V53.8349C135.482 53.7176 135.519 53.6216 135.594 53.5469C135.679 53.4723 135.775 53.4349 135.882 53.4349H137.85C137.967 53.4349 138.063 53.4723 138.138 53.5469C138.212 53.6216 138.25 53.7176 138.25 53.8349V56.4749H140.25C140.367 56.4749 140.463 56.5123 140.538 56.5869C140.623 56.6616 140.666 56.7576 140.666 56.8749V58.2509C140.666 58.3683 140.623 58.4643 140.538 58.5389C140.463 58.6136 140.367 58.6509 140.25 58.6509H138.25V61.3709C138.25 61.7443 138.319 62.0269 138.458 62.2189C138.596 62.4109 138.82 62.5069 139.13 62.5069H140.394C140.511 62.5069 140.607 62.5496 140.682 62.6349C140.756 62.7096 140.794 62.8056 140.794 62.9229V64.3949C140.794 64.5016 140.756 64.5976 140.682 64.6829C140.607 64.7576 140.511 64.7949 140.394 64.7949H138.874ZM149.859 64.9549C148.825 64.9549 147.945 64.8056 147.219 64.5069C146.494 64.2083 145.945 63.8136 145.571 63.3229C145.198 62.8323 145.001 62.2989 144.979 61.7229C144.979 61.6269 145.011 61.5469 145.075 61.4829C145.15 61.4189 145.235 61.3869 145.331 61.3869H147.459C147.587 61.3869 147.689 61.4083 147.763 61.4509C147.849 61.4936 147.939 61.5683 148.035 61.6749C148.174 61.9309 148.387 62.1443 148.675 62.3149C148.974 62.4749 149.369 62.5549 149.859 62.5549C150.435 62.5549 150.878 62.4696 151.187 62.2989C151.497 62.1176 151.651 61.8723 151.651 61.5629C151.651 61.3389 151.571 61.1576 151.411 61.0189C151.251 60.8696 150.995 60.7416 150.643 60.6349C150.291 60.5176 149.785 60.3896 149.123 60.2509C147.833 59.9949 146.867 59.6056 146.227 59.0829C145.587 58.5603 145.267 57.8136 145.267 56.8429C145.267 56.1816 145.449 55.5949 145.811 55.0829C146.185 54.5603 146.707 54.1549 147.379 53.8669C148.062 53.5789 148.851 53.4349 149.747 53.4349C150.686 53.4349 151.497 53.6003 152.179 53.9309C152.873 54.2509 153.401 54.6563 153.763 55.1469C154.137 55.6269 154.334 56.1016 154.355 56.5709C154.355 56.6669 154.323 56.7523 154.259 56.8269C154.195 56.8909 154.115 56.9229 154.019 56.9229H151.779C151.545 56.9229 151.363 56.8269 151.235 56.6349C151.171 56.4109 151.006 56.2243 150.739 56.0749C150.473 55.9149 150.142 55.8349 149.747 55.8349C149.299 55.8349 148.953 55.9149 148.707 56.0749C148.462 56.2349 148.339 56.4696 148.339 56.7789C148.339 57.0883 148.499 57.3336 148.819 57.5149C149.139 57.6856 149.737 57.8616 150.611 58.0429C151.614 58.2243 152.409 58.4536 152.995 58.7309C153.593 58.9976 154.03 59.3496 154.307 59.7869C154.595 60.2136 154.739 60.7576 154.739 61.4189C154.739 62.1443 154.531 62.7736 154.115 63.3069C153.699 63.8403 153.123 64.2509 152.387 64.5389C151.651 64.8163 150.809 64.9549 149.859 64.9549ZM160.468 64.7949C158.206 64.7949 157.076 63.7336 157.076 61.6109V58.6509H155.812C155.705 58.6509 155.609 58.6136 155.524 58.5389C155.449 58.4536 155.412 58.3576 155.412 58.2509V56.8749C155.412 56.7576 155.449 56.6616 155.524 56.5869C155.609 56.5123 155.705 56.4749 155.812 56.4749H157.076V53.8349C157.076 53.7176 157.113 53.6216 157.188 53.5469C157.273 53.4723 157.369 53.4349 157.476 53.4349H159.444C159.561 53.4349 159.657 53.4723 159.732 53.5469C159.806 53.6216 159.844 53.7176 159.844 53.8349V56.4749H161.844C161.961 56.4749 162.057 56.5123 162.132 56.5869C162.217 56.6616 162.26 56.7576 162.26 56.8749V58.2509C162.26 58.3683 162.217 58.4643 162.132 58.5389C162.057 58.6136 161.961 58.6509 161.844 58.6509H159.844V61.3709C159.844 61.7443 159.913 62.0269 160.052 62.2189C160.19 62.4109 160.414 62.5069 160.724 62.5069H161.988C162.105 62.5069 162.201 62.5496 162.276 62.6349C162.35 62.7096 162.388 62.8056 162.388 62.9229V64.3949C162.388 64.5016 162.35 64.5976 162.276 64.6829C162.201 64.7576 162.105 64.7949 161.988 64.7949H160.468ZM166.19 64.9549C165.624 64.9549 165.107 64.8483 164.638 64.6349C164.179 64.4109 163.816 64.1069 163.55 63.7229C163.294 63.3389 163.166 62.9176 163.166 62.4589C163.166 61.7336 163.464 61.1469 164.062 60.6989C164.67 60.2403 165.502 59.9256 166.558 59.7549L168.542 59.4509V59.2589C168.542 58.8643 168.462 58.5763 168.302 58.3949C168.142 58.2136 167.87 58.1229 167.486 58.1229C167.272 58.1229 167.091 58.1603 166.942 58.2349C166.803 58.3096 166.643 58.4216 166.462 58.5709C166.323 58.6883 166.2 58.7736 166.094 58.8269C166.051 58.9016 165.998 58.9389 165.934 58.9389H164.078C163.971 58.9389 163.88 58.9069 163.806 58.8429C163.742 58.7683 163.715 58.6829 163.726 58.5869C163.736 58.2989 163.88 57.9789 164.158 57.6269C164.435 57.2643 164.856 56.9549 165.422 56.6989C165.987 56.4429 166.686 56.3149 167.518 56.3149C168.84 56.3149 169.822 56.6083 170.462 57.1949C171.102 57.7709 171.422 58.5549 171.422 59.5469V64.3949C171.422 64.5016 171.384 64.5976 171.31 64.6829C171.235 64.7576 171.139 64.7949 171.022 64.7949H169.054C168.947 64.7949 168.851 64.7576 168.766 64.6829C168.691 64.5976 168.654 64.5016 168.654 64.3949V63.8349C168.419 64.1656 168.094 64.4376 167.678 64.6509C167.262 64.8536 166.766 64.9549 166.19 64.9549ZM166.99 63.0669C167.459 63.0669 167.838 62.9123 168.126 62.6029C168.424 62.2936 168.574 61.8456 168.574 61.2589V61.0669L167.246 61.2909C166.35 61.4616 165.902 61.7816 165.902 62.2509C165.902 62.4963 166.003 62.6936 166.206 62.8429C166.419 62.9923 166.68 63.0669 166.99 63.0669ZM173.562 64.7949C173.455 64.7949 173.359 64.7576 173.274 64.6829C173.199 64.5976 173.162 64.5016 173.162 64.3949V56.8909C173.162 56.7736 173.199 56.6776 173.274 56.6029C173.349 56.5176 173.445 56.4749 173.562 56.4749H175.514C175.631 56.4749 175.727 56.5176 175.802 56.6029C175.887 56.6776 175.93 56.7736 175.93 56.8909V57.4989C176.229 57.1683 176.575 56.9176 176.97 56.7469C177.375 56.5656 177.823 56.4749 178.314 56.4749H179.034C179.151 56.4749 179.247 56.5123 179.322 56.5869C179.397 56.6616 179.434 56.7576 179.434 56.8749V58.6189C179.434 58.7256 179.397 58.8216 179.322 58.9069C179.247 58.9816 179.151 59.0189 179.034 59.0189H177.418C176.991 59.0189 176.661 59.1363 176.426 59.3709C176.202 59.6056 176.09 59.9363 176.09 60.3629V64.3949C176.09 64.5123 176.047 64.6083 175.962 64.6829C175.887 64.7576 175.791 64.7949 175.674 64.7949H173.562ZM184.905 64.7949C182.644 64.7949 181.513 63.7336 181.513 61.6109V58.6509H180.249C180.142 58.6509 180.046 58.6136 179.961 58.5389C179.886 58.4536 179.849 58.3576 179.849 58.2509V56.8749C179.849 56.7576 179.886 56.6616 179.961 56.5869C180.046 56.5123 180.142 56.4749 180.249 56.4749H181.513V53.8349C181.513 53.7176 181.55 53.6216 181.625 53.5469C181.71 53.4723 181.806 53.4349 181.913 53.4349H183.881C183.998 53.4349 184.094 53.4723 184.169 53.5469C184.244 53.6216 184.281 53.7176 184.281 53.8349V56.4749H186.281C186.398 56.4749 186.494 56.5123 186.569 56.5869C186.654 56.6616 186.697 56.7576 186.697 56.8749V58.2509C186.697 58.3683 186.654 58.4643 186.569 58.5389C186.494 58.6136 186.398 58.6509 186.281 58.6509H184.281V61.3709C184.281 61.7443 184.35 62.0269 184.489 62.2189C184.628 62.4109 184.852 62.5069 185.161 62.5069H186.425C186.542 62.5069 186.638 62.5496 186.713 62.6349C186.788 62.7096 186.825 62.8056 186.825 62.9229V64.3949C186.825 64.5016 186.788 64.5976 186.713 64.6829C186.638 64.7576 186.542 64.7949 186.425 64.7949H184.905ZM192.019 64.9549C190.718 64.9549 189.694 64.6083 188.947 63.9149C188.2 63.2109 187.816 62.1923 187.795 60.8589V60.3629C187.838 59.0936 188.232 58.1016 188.979 57.3869C189.726 56.6723 190.734 56.3149 192.003 56.3149C192.92 56.3149 193.694 56.5016 194.323 56.8749C194.963 57.2376 195.438 57.7443 195.747 58.3949C196.067 59.0349 196.227 59.7656 196.227 60.5869V60.9869C196.227 61.1043 196.184 61.2056 196.099 61.2909C196.024 61.3656 195.928 61.4029 195.811 61.4029H190.739V61.4989C190.75 61.9789 190.862 62.3683 191.075 62.6669C191.288 62.9549 191.592 63.0989 191.987 63.0989C192.243 63.0989 192.446 63.0509 192.595 62.9549C192.755 62.8483 192.904 62.7149 193.043 62.5549C193.139 62.4483 193.214 62.3843 193.267 62.3629C193.331 62.3309 193.427 62.3149 193.555 62.3149H195.651C195.747 62.3149 195.827 62.3469 195.891 62.4109C195.966 62.4643 196.003 62.5336 196.003 62.6189C196.003 62.8963 195.843 63.2216 195.523 63.5949C195.214 63.9683 194.755 64.2883 194.147 64.5549C193.55 64.8216 192.84 64.9549 192.019 64.9549ZM193.283 59.7709V59.7389C193.283 59.2269 193.171 58.8323 192.947 58.5549C192.723 58.2669 192.408 58.1229 192.003 58.1229C191.598 58.1229 191.283 58.2669 191.059 58.5549C190.846 58.8323 190.739 59.2269 190.739 59.7389V59.7709H193.283ZM200.782 64.9549C199.747 64.9549 198.931 64.6296 198.334 63.9789C197.747 63.3283 197.433 62.4003 197.39 61.1949L197.374 60.6349L197.39 60.0589C197.433 58.8963 197.753 57.9843 198.35 57.3229C198.947 56.6509 199.758 56.3149 200.782 56.3149C201.742 56.3149 202.515 56.6243 203.102 57.2429V53.8349C203.102 53.7176 203.139 53.6216 203.214 53.5469C203.299 53.4723 203.395 53.4349 203.502 53.4349H205.566C205.683 53.4349 205.779 53.4723 205.854 53.5469C205.939 53.6216 205.982 53.7176 205.982 53.8349V64.3949C205.982 64.5123 205.939 64.6083 205.854 64.6829C205.779 64.7576 205.683 64.7949 205.566 64.7949H203.662C203.555 64.7949 203.459 64.7576 203.374 64.6829C203.299 64.5976 203.262 64.5016 203.262 64.3949V63.8989C202.686 64.6029 201.859 64.9549 200.782 64.9549ZM201.71 62.7309C202.169 62.7309 202.51 62.5869 202.734 62.2989C202.958 62.0003 203.081 61.6269 203.102 61.1789C203.123 60.8803 203.134 60.6776 203.134 60.5709C203.134 60.4536 203.123 60.2563 203.102 59.9789C203.081 59.5629 202.953 59.2216 202.718 58.9549C202.494 58.6776 202.158 58.5389 201.71 58.5389C201.23 58.5389 200.883 58.6829 200.67 58.9709C200.467 59.2483 200.35 59.6376 200.318 60.1389L200.302 60.6349L200.318 61.1309C200.35 61.6323 200.467 62.0269 200.67 62.3149C200.883 62.5923 201.23 62.7309 201.71 62.7309Z" fill="white"/>
<defs>
<filter id="filter0_f_1_298" x="0.0856934" y="0.585938" width="319.829" height="168" filterUnits="userSpaceOnUse" color-interpolation-filters="sRGB">
<feFlood flood-opacity="0" result="BackgroundImageFix"/>
<feBlend mode="normal" in="SourceGraphic" in2="BackgroundImageFix" result="shape"/>
<feGaussianBlur stdDeviation="27" result="effect1_foregroundBlur_1_298"/>
</filter>
</defs>
</svg>
